<?xml version="1.0" standalone="no"?>
<!DOCTYPE svg PUBLIC "-//W3C//DTD SVG 20010904//EN"
 "http://www.w3.org/TR/2001/REC-SVG-20010904/DTD/svg10.dtd">
<svg version="1.0" xmlns="http://www.w3.org/2000/svg"
 width="720.000000pt" height="720.000000pt" viewBox="0 0 720.000000 720.000000"
 preserveAspectRatio="xMidYMid meet">
<metadata>
Created by potrace 1.11, written by Peter Selinger 2001-2013
</metadata>
<g transform="translate(0.000000,720.000000) scale(0.100000,-0.100000)"
fill="#000000" stroke="none">
<path d="M3260 7189 c-139 -13 -379 -55 -537 -94 -491 -120 -963 -353 -1370
-677 -164 -130 -441 -407 -571 -571 -442 -556 -708 -1220 -772 -1927 -13 -148
-13 -492 0 -640 64 -706 330 -1371 772 -1927 130 -164 407 -441 571 -571 556
-442 1223 -709 1927 -772 148 -13 493 -13 640 0 456 42 862 156 1275 360 388
192 685 408 990 721 559 573 893 1277 997 2099 18 141 18 679 0 820 -90 707
-345 1317 -778 1857 -101 125 -320 351 -449 462 -236 203 -471 358 -760 501
-413 204 -819 318 -1275 360 -135 12 -523 11 -660 -1z m23 -216 c-7 -2 -21 -2
-30 0 -10 3 -4 5 12 5 17 0 24 -2 18 -5z"/>
</g>
</svg>
